<svg id="Layer_1" data-name="Layer 1" xmlns="http://www.w3.org/2000/svg" xmlns:xlink="http://www.w3.org/1999/xlink" viewBox="0 0 402.41 111.92"><defs><style>.cls-1,.cls-21{fill:none;}.cls-2{clip-path:url(#clip-path);}.cls-3{font-size:61px;font-family:ModestoText-Medium, Modesto Text;font-weight:500;letter-spacing:-0.07em;}.cls-19,.cls-3{fill:#231f20;}.cls-4{letter-spacing:-0.04em;}.cls-5{letter-spacing:-0.04em;}.cls-6{letter-spacing:-0.04em;}.cls-7{letter-spacing:-0.04em;}.cls-8{letter-spacing:-0.04em;}.cls-9{letter-spacing:-0.03em;}.cls-10{letter-spacing:-0.04em;}.cls-11{letter-spacing:-0.02em;}.cls-12{letter-spacing:-0.04em;}.cls-13{letter-spacing:-0.04em;}.cls-14{letter-spacing:-0.02em;}.cls-15{letter-spacing:-0.05em;}.cls-16{letter-spacing:-0.05em;}.cls-17{letter-spacing:-0.04em;}.cls-18{clip-path:url(#clip-path-2);}.cls-19,.cls-20{font-size:59.53px;font-family:Symbol;}.cls-20{fill:#be1e2d;}.cls-21{stroke:#231f20;stroke-miterlimit:10;stroke-width:1.91px;}</style><clipPath id="clip-path"><rect class="cls-1" width="402.41" height="111.92"/></clipPath><clipPath id="clip-path-2"><rect class="cls-1" x="2.26" y="1.73" width="102.32" height="100.03"/></clipPath></defs><g class="cls-2"><text class="cls-3" transform="translate(109.58 46.11)">P<tspan class="cls-4" x="32.74" y="0">a</tspan><tspan class="cls-5" x="61.6" y="0">s</tspan><tspan class="cls-6" x="88.31" y="0">ad</tspan><tspan class="cls-7" x="148.85" y="0">e</tspan><tspan class="cls-8" x="177.55" y="0">n</tspan><tspan class="cls-9" x="209.67" y="0">a</tspan><tspan class="cls-10"><tspan x="0" y="52">B</tspan><tspan class="cls-11" x="35.81" y="52">r</tspan><tspan class="cls-12" x="59.8" y="52">i</tspan><tspan class="cls-6" x="72.44" y="52">d</tspan><tspan class="cls-13" x="104.35" y="52">g</tspan><tspan class="cls-14" x="136.11" y="52">e </tspan><tspan class="cls-15" x="179.48" y="52">C</tspan><tspan class="cls-16" x="213.59" y="52">l</tspan><tspan class="cls-17" x="226.18" y="52">u</tspan><tspan class="cls-9" x="258.31" y="52">b</tspan></tspan></text><g class="cls-18"><g class="cls-18"><text class="cls-19" transform="translate(5.58 48.45) scale(1.05 1)">♠</text><text class="cls-20" transform="translate(51.46 48.45) scale(1.05 1)">♥</text><text class="cls-20" transform="translate(5.58 93.69) scale(1.05 1)">♦</text><text class="cls-19" transform="translate(51.46 93.69) scale(1.05 1)">♣</text><path class="cls-21" d="M90.54,98.35H16.4c-6.49,0-11.75-5-11.75-11.16v-72C4.65,9.05,9.91,4.06,16.4,4.06H90.54c6.49,0,11.75,5,11.75,11.16v72C102.29,93.35,97,98.35,90.54,98.35Z"/></g></g></g></svg>